<svg width="68" height="56" viewBox="0 0 68 56" fill="none" xmlns="http://www.w3.org/2000/svg">
<path d="M66 13.5C66.8284 13.5 67.5 12.8284 67.5 12C67.5 11.1716 66.8284 10.5 66 10.5V13.5ZM0.939339 10.9393C0.353554 11.5251 0.353554 12.4749 0.939339 13.0607L10.4853 22.6066C11.0711 23.1924 12.0208 23.1924 12.6066 22.6066C13.1924 22.0208 13.1924 21.0711 12.6066 20.4853L4.12132 12L12.6066 3.51472C13.1924 2.92893 13.1924 1.97919 12.6066 1.3934C12.0208 0.807611 11.0711 0.807611 10.4853 1.3934L0.939339 10.9393ZM66 10.5L2 10.5V13.5L66 13.5V10.5Z" fill="black"/>
<path d="M2 42.5C1.17157 42.5 0.5 43.1716 0.5 44C0.5 44.8284 1.17157 45.5 2 45.5L2 42.5ZM67.0607 45.0607C67.6464 44.4749 67.6464 43.5251 67.0607 42.9394L57.5147 33.3934C56.9289 32.8076 55.9792 32.8076 55.3934 33.3934C54.8076 33.9792 54.8076 34.9289 55.3934 35.5147L63.8787 44L55.3934 52.4853C54.8076 53.0711 54.8076 54.0208 55.3934 54.6066C55.9792 55.1924 56.9289 55.1924 57.5147 54.6066L67.0607 45.0607ZM2 45.5L66 45.5L66 42.5L2 42.5L2 45.5Z" fill="black"/>
</svg>
